<?xml version="1.0" standalone="no"?>
<!DOCTYPE svg PUBLIC "-//W3C//DTD SVG 20010904//EN"
 "http://www.w3.org/TR/2001/REC-SVG-20010904/DTD/svg10.dtd">
<svg version="1.0" xmlns="http://www.w3.org/2000/svg"
 width="60.000000pt" height="200.000000pt" viewBox="0 0 60.000000 200.000000"
 preserveAspectRatio="xMidYMid meet">
<metadata>
Created by potrace 1.16, written by Peter Selinger 2001-2019
</metadata>
<g transform="translate(0.000000,200.000000) scale(0.100000,-0.100000)"
fill="#0984e3" stroke="none">
<path d="M0 1000 l0 -1000 105 0 c91 0 106 2 114 18 6 10 48 113 95 228 47
115 129 315 182 444 87 209 98 243 102 308 4 80 13 54 -188 527 -38 88 -86
205 -108 260 -22 55 -52 126 -66 158 l-26 57 -105 0 -105 0 0 -1000z"/>
</g>
</svg>
